<svg xmlns="http://www.w3.org/2000/svg" viewBox="0 0 130 40" role="img" aria-label="Apple logo">
  <path d="M21.8 13.2c.9-1.1 1.5-2.6 1.3-4.2-1.3.1-2.9.9-3.8 2-.8 1-1.6 2.6-1.4 4.1 1.5.1 3-.8 3.9-1.9z" fill="#1D1D1F"/><path d="M25.6 20.2c0-3.1 2.5-4.6 2.6-4.7-1.4-2.1-3.6-2.4-4.4-2.4-1.9-.2-3.6 1.1-4.6 1.1-1 0-2.5-1.1-4.1-1-2.1 0-4 1.2-5.1 3.1-2.2 3.8-.6 9.4 1.6 12.5 1 1.5 2.3 3.2 3.9 3.1 1.6-.1 2.2-1 4.1-1s2.5 1 4.1 1c1.7 0 2.8-1.5 3.8-3 1.2-1.7 1.7-3.4 1.7-3.5-.1 0-3.6-1.4-3.6-5.2z" fill="#1D1D1F"/>
  <text x="38" y="27" font-family="Arial, Helvetica, sans-serif" font-size="18" font-weight="700" fill="#1D1D1F">Apple</text>
</svg>
